# xmcd
#
# Track frame offsets: 
#        150
#        11675
#        21885
#        34315
#        47953
#        62024
#        75699
#        88015
#        94845
#        105608
#        117580
#        127962
#        140085
#        151542
#        163304
#        177041
#        189611
#        201909
#        212581
#        223368
#
# Disc length: 3163 seconds
#
# Revision: 0
# Processed by: cddbd v1.5.2PL0 Copyright (c) Steve Scherf et al.
# Submitted via: ExactAudioCopy v1.0b6
#
DISCID=220c5914
DTITLE=Various Artist - Simply Country CD2
DYEAR=2015
DGENRE=Country
TTITLE0=Patsy Cline - Walkin' After Midnight
TTITLE1=Dolly Parton - Release Me
TTITLE2=Willie Nelson - Country Willie
TTITLE3=Ernest Tubb - Goodnight Irene
TTITLE4=Rita Remington - Angel Of The Morning
TTITLE5=George Jones - Life To Go
TTITLE6=Lynn Anderson - Stand By Your Man
TTITLE7=Buck Owens - You're For Me
TTITLE8=Faron Young - Hello Walls
TTITLE9=Skeeter Davis - The End Of The World
TTITLE10=Waylon Jennings - Lorena
TTITLE11=Charlie Rich - Ballad Of Billy Joe
TTITLE12=Charlie Feathers - Defrost Your Heart
TTITLE13=Billie Jo Spears - Ease The Want In Me
TTITLE14=Ray Price - I Love You So Much, It Hurts
TTITLE15=Brenda Lee - Just Out Of Reach
TTITLE16=Jim Reeves - Am I Losing You
TTITLE17=Billie Jo Spears - I'm So Lonesome I Could Cry
TTITLE18=Webb Pierce - Cryin' Over You
TTITLE19=Hoyt Axton - Lonesome Road
EXTD=
EXTT0=
EXTT1=
EXTT2=
EXTT3=
EXTT4=
EXTT5=
EXTT6=
EXTT7=
EXTT8=
EXTT9=
EXTT10=
EXTT11=
EXTT12=
EXTT13=
EXTT14=
EXTT15=
EXTT16=
EXTT17=
EXTT18=
EXTT19=
PLAYORDER=
